<?xml version="1.0" encoding="utf-8"?>
<!-- Generator: Adobe Illustrator 25.2.1, SVG Export Plug-In . SVG Version: 6.00 Build 0)  -->
<svg version="1.1" id="Capa_1" xmlns="http://www.w3.org/2000/svg" xmlns:xlink="http://www.w3.org/1999/xlink" x="0px" y="0px"
	 viewBox="0 0 231.79 94.64" style="enable-background:new 0 0 231.79 94.64;" xml:space="preserve">
<style type="text/css">
	.st0{fill:#FFFFFF;}
	.st1{fill:#F5A800;}
	.st2{fill:#6F7271;}
	.st3{fill:#B4A269;}
</style>
<g>
	<g>
		<g>
			<path class="st0" d="M49.7,68.21c1.15,1.99,0.21,3.62-2.09,3.62l-27.45,0.03c-2.3,0-3.24-1.63-2.09-3.62l13.7-23.79
				c1.15-1.99,3.03-2,4.18-0.01L49.7,68.21z"/>
			<path class="st1" d="M46.8,23.32L23.58,37.97c-1.95,1.22-1.88,3.09,0.15,4.17l7.19,3.8l0.85-1.48c1.15-1.99,3.03-2,4.18-0.01
				l3.45,5.96L48,54.95c2.04,1.07,3.63,0.07,3.54-2.23L50.5,25.28C50.42,22.99,48.74,22.1,46.8,23.32"/>
			<path class="st2" d="M49.7,68.21c1.15,1.99,0.21,3.62-2.09,3.62l-27.45,0.03c-2.3,0-3.24-1.63-2.09-3.62l13.7-23.79
				c1.15-1.99,3.03-2,4.18-0.01L49.7,68.21z"/>
			<path class="st3" d="M37.73,32.51L18.67,52.26c-1.6,1.65-1.08,3.46,1.15,4.02l4.5,1.12l7.41-12.88c1.15-1.99,3.03-2,4.18-0.01
				l10.66,18.42c2.17,0.48,3.42-0.85,2.8-3.03l-7.57-26.4C41.16,31.31,39.33,30.85,37.73,32.51"/>
		</g>
		<g>
			<path class="st2" d="M126.9,55.42l-10.45-0.01c-0.43-0.1-0.77-0.58-0.57-1.1l5.2-13.16c0.1-0.24,0.33-0.41,0.6-0.41
				c0.27,0,0.5,0.17,0.6,0.4l5.2,13.17C127.7,54.85,127.34,55.32,126.9,55.42 M131.44,64.03l2.29,5.68c0.7,1.76,2.7,2.61,4.47,1.91
				c1.76-0.71,2.62-2.71,1.91-4.47l-12.75-31.84c-0.9-2.26-3.1-3.84-5.66-3.84c-2.58,0-4.77,1.6-5.67,3.84l-12.74,31.84
				c-0.7,1.76,0.15,3.76,1.91,4.47c1.76,0.7,3.76-0.15,4.46-1.91l2.29-5.68c0.58-1.38,1.95-1.98,3.37-1.92h12.76
				C129.63,62.11,130.86,62.65,131.44,64.03"/>
			<path class="st2" d="M210.79,64.74h-11.34h-0.02c-6.61-0.01-9.83-2.8-10.58-9.46h20.88c1.9,0,3.43-1.54,3.43-3.43
				c0-1.89-1.53-3.43-3.43-3.43h-20.88c0.76-6.68,3.98-9.48,10.61-9.48h11.34c1.89,0,3.42-1.54,3.42-3.43
				c0-1.89-1.53-3.43-3.42-3.43h-11.34c-8.05,0-17.65,3.43-17.65,19.77c0,16.34,9.6,19.76,17.65,19.76h0.04h11.3
				c1.89,0,3.42-1.54,3.42-3.43C214.22,66.28,212.69,64.74,210.79,64.74"/>
			<path class="st2" d="M71.51,55.28l16.38,0c2.58,0.04,4.67,2.14,4.67,4.73c0,2.62-2.13,4.75-4.74,4.75H71.51V55.28z M71.51,38.95
				l15.76,0c2.62,0,4.74,2.12,4.74,4.73c0,2.59-2.09,4.7-4.67,4.74H71.51V38.95z M87.27,71.61c7.08,0,12.56-3.74,12.56-10.98
				c0-4.27-2.62-7.21-5.6-8.79c2.75-1.57,5.09-5.12,5.09-8.57c0-6.54-4.65-11.19-12.05-11.19H67.31c-1.17,0-2.12,0.95-2.12,2.12
				c0,0.02,0,0.03,0,0.06v35.17c0,0.02,0,0.03,0,0.05c0,1.17,0.94,2.13,2.12,2.13H87.27"/>
			<path class="st2" d="M177.85,60.02c0-6.39-5.2-11.61-11.57-11.61h-10.91c-2.62,0-4.74-2.12-4.74-4.74c0-2.62,2.12-4.74,4.74-4.74
				l16.54,0c1.9,0,3.43-1.53,3.43-3.43c0-1.89-1.53-3.43-3.43-3.43l-16.55,0.01c-6.41,0-11.61,5.2-11.61,11.61
				c0,6.41,5.19,11.61,11.61,11.61l10.9,0c2.61,0,4.73,2.11,4.73,4.72c0,2.6-2.12,4.72-4.73,4.72h-19.09c-1.9,0-3.44,1.53-3.44,3.44
				c0,1.89,1.54,3.43,3.44,3.43h19.09c0.15,0,0.28-0.01,0.42-0.02C172.88,71.36,177.85,66.27,177.85,60.02"/>
		</g>
	</g>
</g>
</svg>
