<svg width="211" height="58" viewBox="0 0 211 58" fill="none" xmlns="http://www.w3.org/2000/svg">
<path d="M193.322 57.5404C202.849 57.5404 207.853 53.1943 210.402 49.4268C211.959 47.1252 210.292 44.005 207.526 44.005H207.429C206.255 44.005 205.183 44.6221 204.525 45.5993C201.687 49.8211 195.776 51.7757 190.025 48.1838C189.204 47.6695 188.508 46.9667 187.997 46.1352C183.071 38.1244 188.668 29.7923 196.192 29.7923C199.616 29.7923 202.635 31.5154 204.451 34.147C205.12 35.1114 206.217 35.6815 207.386 35.6815C210.292 35.6815 211.993 32.3854 210.33 29.9853C208.127 26.805 204.89 24.4048 201.114 23.2732C200.56 23.1104 200.338 22.446 200.693 21.9874L208.296 12.1637C209.9 10.0936 208.438 7.0676 205.83 7.0676C204.69 7.0676 203.613 7.60336 202.921 8.512L192.293 22.4417C192.138 22.6433 191.914 22.7889 191.664 22.8017C191.072 22.836 190.655 22.2489 190.858 21.7002L195.809 8.39628C196.78 5.78606 194.865 3.00012 192.101 3.00012C190.727 3.00012 189.511 3.88734 189.081 5.19887L182.183 26.1835C181.91 27.0064 180.703 26.8135 180.703 25.9434V12.3823C180.703 9.53209 178.41 7.2219 175.577 7.2219C174.263 7.2219 173.2 8.2977 173.2 9.62209V57.5361H193.322V57.5404Z" fill="#F9FEFF" fill-opacity="0.6"/>
<path d="M190.134 56.6747C187.115 56.6747 184.292 56.2461 181.747 55.4018L180.74 55.0675L181.407 53.0315L182.416 53.3658C184.741 54.1416 187.342 54.5317 190.134 54.5317C199.25 54.5317 203.976 50.3742 206.335 46.8854C206.837 46.1481 206.884 45.231 206.466 44.4338C206.042 43.6237 205.247 43.1394 204.341 43.1394H204.244C203.447 43.1394 202.69 43.5593 202.219 44.2622C199.2 48.7626 192.751 51.1971 186.277 47.1553C185.32 46.5595 184.504 45.7323 183.905 44.7595C181.438 40.7477 181.211 36.2944 183.283 32.5441C185.249 28.9909 188.975 26.7794 193.006 26.7794C196.646 26.7794 200.057 28.5795 202.141 31.5927C202.605 32.2656 203.375 32.6684 204.204 32.6684C205.166 32.6684 206.004 32.1541 206.447 31.2969C206.893 30.4355 206.83 29.4497 206.276 28.6523C204.183 25.635 201.113 23.3978 197.63 22.3562C197.029 22.1762 196.558 21.7133 196.365 21.1132C196.178 20.5218 196.294 19.8746 196.673 19.386L204.276 9.56222C204.774 8.91932 204.859 8.10067 204.506 7.36777C204.154 6.63484 203.456 6.19766 202.649 6.19766C201.845 6.19766 201.07 6.57911 200.581 7.22203L189.953 21.1517C189.599 21.6146 189.084 21.8976 188.541 21.9275C187.903 21.9661 187.302 21.6746 186.924 21.1603C186.55 20.646 186.457 19.9774 186.682 19.3817L191.632 6.07765C191.972 5.169 191.85 4.1875 191.3 3.39029C190.751 2.59736 189.884 2.13874 188.919 2.13874C188.005 2.13874 187.196 2.72595 186.907 3.60031L180.008 24.585C179.723 25.4593 178.89 25.9693 177.988 25.8193C177.087 25.6737 176.457 24.9277 176.457 24.0063V10.4495C176.457 9.3565 176.036 8.32783 175.266 7.55635C174.501 6.78486 173.48 6.36054 172.4 6.36054C172.4 6.36054 172.4 6.36054 172.396 6.36054C171.668 6.36054 171.077 6.9563 171.077 7.68921V54.3432H168.95V7.68921C168.95 5.77762 170.494 4.22177 172.391 4.21749H172.396C174.046 4.21749 175.598 4.86469 176.768 6.04335C177.937 7.22203 178.579 8.78644 178.579 10.4495V22.1118L184.883 2.93167C185.461 1.17867 187.077 0 188.91 0C190.557 0 192.1 0.814354 193.04 2.18161C193.981 3.54458 194.193 5.28901 193.614 6.84486L189.259 18.5501L198.888 5.92764C199.777 4.76183 201.181 4.0632 202.64 4.0632C204.256 4.0632 205.697 4.97185 206.407 6.4334C207.117 7.89495 206.939 9.60081 205.945 10.8866L198.577 20.4103C202.375 21.6318 205.718 24.1135 208.02 27.4266C209.02 28.8667 209.139 30.7311 208.335 32.287C207.531 33.8429 205.948 34.8114 204.204 34.8114C202.683 34.8114 201.262 34.0657 200.397 32.8184C198.714 30.3797 195.954 28.9224 193.01 28.9224C189.748 28.9224 186.732 30.7097 185.146 33.5857C183.463 36.6374 183.666 40.2976 185.716 43.6321C186.142 44.3223 186.725 44.9094 187.401 45.3338C192.735 48.6641 198.007 46.7138 200.462 43.0623C201.329 41.7679 202.746 40.9962 204.247 40.9962H204.344C206.029 40.9962 207.565 41.9306 208.351 43.4307C209.142 44.9438 209.049 46.684 208.096 48.094C205.441 52.0072 200.176 56.6747 190.134 56.6747Z" fill="#F9FEFF"/>
<path d="M0 35.0515C0 26.7665 5.94161 20.3502 14.3756 20.3502C20.951 20.3502 26.5226 24.4134 27.7941 30.8255H22.0652C21.1125 27.6194 18.0885 25.4807 14.4266 25.4807C9.17399 25.4807 5.72896 29.6511 5.72896 35.0472C5.72896 40.5549 9.33562 44.6138 14.5329 44.6138C18.0885 44.6138 21.1635 42.4749 22.1163 39.3204H27.79C26.5693 45.7367 20.9467 49.6885 14.4223 49.6885C5.83529 49.697 0 43.2807 0 35.0515Z" fill="#F9FEFF"/>
<path d="M33.5242 8.91101H39.0406V24.7866H39.4106C40.5759 22.4893 43.4426 20.3505 47.5807 20.3505C53.8925 20.3505 57.8181 25.001 57.8181 31.04V48.9986H52.2507V32.1115C52.2507 28.2113 49.4394 25.5881 45.9391 25.5881C42.1751 25.5881 39.0958 28.4726 39.0958 32.4288V48.9986H33.5242V8.91101Z" fill="#F9FEFF"/>
<path d="M62.8022 35.1029C62.8022 26.2308 68.7437 20.3502 76.646 20.3502C85.2927 20.3502 90.2262 26.7665 90.2262 34.7301V36.8131H68.3738C68.5863 41.6778 71.823 44.9909 76.914 44.9909C80.4143 44.9909 83.4383 43.2807 84.5527 40.5549H89.9626C88.5294 45.9553 83.5956 49.697 76.7566 49.697C68.4248 49.697 62.8022 43.4951 62.8022 35.1029ZM84.7057 32.4841C84.3358 27.7823 80.9417 25.0522 76.6419 25.0522C72.3972 25.0522 68.8969 28.0995 68.4716 32.4841H84.7057Z" fill="#F9FEFF"/>
<path d="M93.9354 35.0515C93.9354 26.7665 99.8771 20.3502 108.311 20.3502C114.886 20.3502 120.458 24.4134 121.73 30.8255H116.001C115.048 27.6194 112.024 25.4807 108.362 25.4807C103.11 25.4807 99.6644 29.6511 99.6644 35.0472C99.6644 40.5549 103.271 44.6138 108.468 44.6138C112.024 44.6138 115.099 42.4749 116.052 39.3204H121.725C120.505 45.7366 114.882 49.6885 108.358 49.6885C99.7708 49.697 93.9354 43.2807 93.9354 35.0515Z" fill="#F9FEFF"/>
<path d="M125.496 35.1029C125.496 26.4451 130.962 20.3502 138.702 20.3502C144.006 20.3502 146.873 23.6634 147.774 25.1079H148.144V21.0447H153.712V48.9984H148.246V45.0423H147.927C147.183 46.1096 144.478 49.6927 138.962 49.6927C131.013 49.697 125.496 43.7609 125.496 35.1029ZM148.302 35.0515C148.302 29.0125 144.589 25.485 139.71 25.485C134.67 25.485 131.17 29.441 131.17 35.0515C131.17 40.8763 134.67 44.6179 139.761 44.6179C145.069 44.6179 148.302 40.3406 148.302 35.0515Z" fill="#F9FEFF"/>
</svg>
