<svg width="164" height="53" viewBox="0 0 164 53" fill="none" xmlns="http://www.w3.org/2000/svg">
<path d="M29.4961 32.6162C28.704 34.1569 27.6584 35.47 26.3725 36.5556C25.0643 37.6611 23.5114 38.5073 21.7138 39.106C19.9162 39.7007 17.9272 40 15.747 40C13.9627 40 12.3208 39.7805 10.8213 39.3454C9.3218 38.9104 7.98694 38.2918 6.81671 37.4895C5.68652 36.7432 4.69872 35.8372 3.8533 34.7795C3.00789 33.7218 2.30041 32.5604 1.72642 31.2952C1.15243 30.0499 0.720827 28.6969 0.431607 27.2361C0.142386 25.7753 0 24.2546 0 22.6701V17.3578C0 15.8451 0.13793 14.3844 0.418252 12.9794C0.694124 11.5745 1.11239 10.2455 1.66858 9.0002C2.26482 7.61126 3.03459 6.35402 3.97344 5.22052C4.91675 4.091 6.00244 3.12512 7.23496 2.32289C8.4052 1.59249 9.70001 1.02574 11.1194 0.614645C12.5388 0.20355 14.0917 0 15.7781 0C18.0607 0 20.0986 0.303328 21.8962 0.906003C23.6938 1.51267 25.2245 2.36679 26.4971 3.46837C27.7874 4.5899 28.8019 5.94293 29.5495 7.52744C30.2925 9.11196 30.7731 10.8721 30.9911 12.8158H23.8496C23.7294 11.6584 23.4892 10.6126 23.1199 9.6787C22.7505 8.74476 22.2522 7.94652 21.6159 7.28797C20.9618 6.62941 20.1565 6.12652 19.2042 5.77928C18.252 5.43205 17.1085 5.26043 15.7826 5.26043C14.8481 5.26043 14.0116 5.37617 13.2686 5.60767C12.5255 5.83916 11.8625 6.16643 11.2885 6.59749C10.4965 7.11235 9.8335 7.78687 9.30846 8.61305C8.78341 9.43924 8.3518 10.3612 8.01363 11.375C7.75556 12.265 7.55978 13.2149 7.43519 14.2167C7.30616 15.2225 7.24387 16.2522 7.24387 17.3019V22.6701C7.24387 23.9713 7.3284 25.1886 7.49749 26.3261C7.66657 27.4636 7.92909 28.5053 8.28506 29.4512C8.56093 30.2335 8.91689 30.9479 9.3396 31.5865C9.76676 32.2291 10.2785 32.7799 10.8747 33.2429C11.4887 33.7418 12.2007 34.1209 13.0016 34.3764C13.807 34.6358 14.7236 34.7635 15.7558 34.7635C16.9839 34.7635 18.0785 34.6039 19.0307 34.2846C19.9829 33.9653 20.7972 33.4943 21.4735 32.8717C22.1276 32.265 22.6527 31.5107 23.0531 30.6007C23.4491 29.6947 23.7072 28.653 23.8273 27.4756H31C30.7864 29.3634 30.2925 31.0756 29.4961 32.6162Z" fill="#F7F4F3"/>
<path d="M35.0174 18.8818C35.6957 17.0926 36.6774 15.5391 37.9714 14.2212C39.2432 12.9034 40.805 11.869 42.6568 11.1222C44.5087 10.3754 46.6149 10 48.9844 10C51.3539 10 53.4645 10.3754 55.3298 11.1222C57.1905 11.869 58.7657 12.9034 60.0598 14.2212C61.3315 15.5391 62.3088 17.0926 62.9871 18.8818C63.6653 20.6709 64 22.6158 64 24.7205V25.2796C64 27.4002 63.6609 29.349 62.9871 31.1302C62.3088 32.9113 61.336 34.4609 60.0598 35.7788C58.788 37.0967 57.2173 38.131 55.3565 38.8778C53.4958 39.6246 51.3896 40 49.0424 40C46.6729 40 44.5533 39.6246 42.6836 38.8778C40.8139 38.131 39.2387 37.0967 37.967 35.7788C36.6729 34.4609 35.6868 32.9113 35.0129 31.1302C34.3347 29.349 34 27.4002 34 25.2796V24.7205C34.0045 22.6158 34.3436 20.6709 35.0174 18.8818ZM41.5993 28.9657C41.9072 30.1238 42.3891 31.1382 43.0451 32.0128C43.6832 32.8874 44.4953 33.5743 45.4949 34.0815C46.49 34.5887 47.6725 34.8442 49.0469 34.8442C50.3811 34.8442 51.5457 34.5887 52.5408 34.0815C53.5359 33.5743 54.3525 32.8834 54.9906 32.0128C55.6287 31.1422 56.1017 30.1238 56.4096 28.9657C56.7175 27.8075 56.8737 26.5775 56.8737 25.2796V24.7205C56.8737 23.4545 56.7131 22.2444 56.3962 21.0863C56.0794 19.9281 55.6109 18.9137 54.9951 18.0391C54.3391 17.1685 53.5181 16.4736 52.5319 15.9545C51.5457 15.4393 50.3677 15.1797 48.9933 15.1797C47.6412 15.1797 46.4721 15.4393 45.486 15.9545C44.4998 16.4697 43.6876 17.1645 43.054 18.0391C42.398 18.9137 41.9161 19.9281 41.6082 21.0863C41.3003 22.2444 41.1441 23.4545 41.1441 24.7205V25.2796C41.1397 26.5775 41.2914 27.8075 41.5993 28.9657Z" fill="#F7F4F3"/>
<path d="M88.3716 37.2305C88.2448 36.7398 88.1311 36.2259 88.035 35.6928C87.5454 36.1409 86.9989 36.5659 86.3825 36.9716C85.7705 37.3773 85.0798 37.725 84.3191 38.0186C83.5585 38.3277 82.741 38.5711 81.8623 38.7411C80.9836 38.915 80.0393 39 79.0251 39C77.3858 39 75.8907 38.7875 74.5355 38.3664C73.1803 37.9452 72.0262 37.3618 71.0689 36.62C70.094 35.8975 69.3377 35.0205 68.8044 33.9967C68.2667 32.9728 68 31.864 68 30.674C68 29.1402 68.3454 27.784 69.0404 26.6018C69.7311 25.4234 70.741 24.442 72.0656 23.6693C73.294 22.9468 74.8109 22.3943 76.612 22.0157C78.4131 21.6371 80.459 21.4478 82.7366 21.4478H87.8251V19.5623C87.8251 18.8399 87.6852 18.1831 87.4011 17.5997C87.1169 17.0124 86.7148 16.5063 86.1858 16.0735C85.6219 15.6447 84.9311 15.3124 84.1224 15.0767C83.3137 14.8449 82.3825 14.729 81.329 14.729C80.3716 14.729 79.541 14.8333 78.8284 15.0381C78.1159 15.2467 77.5257 15.5288 77.0579 15.892C76.5902 16.2204 76.2448 16.6183 76.0175 17.0935C75.7945 17.5687 75.6809 18.071 75.6809 18.6042H68.6645C68.682 17.4838 68.988 16.4058 69.5694 15.3742C70.1508 14.3427 71.012 13.427 72.1443 12.635C73.2372 11.8236 74.588 11.1823 76.1924 10.7109C77.8011 10.2357 79.6372 10 81.7049 10C83.5585 10 85.2852 10.2009 86.894 10.6066C88.5027 11.0123 89.8929 11.6111 91.0601 12.4031C92.2317 13.1952 93.1454 14.1997 93.8098 15.4129C94.4743 16.626 94.8022 18.0285 94.8022 19.6126V32.0456C94.8022 33.3051 94.9027 34.4371 95.1082 35.4455C95.3137 36.4539 95.6109 37.3193 96 38.0418V38.4823H88.8656C88.6688 38.1384 88.4984 37.7212 88.3716 37.2305ZM82.9333 33.7262C83.7246 33.5176 84.4415 33.251 85.0842 32.9265C85.7268 32.5981 86.282 32.2272 86.7497 31.8137C87.2175 31.4003 87.5803 30.9715 87.8339 30.5233V25.3539H83.3311C81.8098 25.3539 80.494 25.4775 79.3836 25.7286C78.2732 25.9798 77.3858 26.3352 76.7213 26.8027C76.1355 27.2006 75.7027 27.672 75.4186 28.2245C75.1344 28.777 74.9945 29.3952 74.9945 30.0867C74.9945 30.6547 75.1126 31.184 75.3443 31.6747C75.5803 32.1653 75.9169 32.5826 76.3672 32.9265C76.8175 33.2703 77.3727 33.5446 78.0328 33.7417C78.6973 33.9387 79.4754 34.0392 80.3716 34.0392C81.294 34.0392 82.1464 33.9348 82.9333 33.7262Z" fill="#F7F4F3"/>
<path d="M116.744 9.9567H128.704V14.6693H116.744V28.2835C116.744 29.3386 116.885 30.2205 117.17 30.9291C117.456 31.6417 117.851 32.1969 118.361 32.6024C118.87 33.0236 119.476 33.3228 120.184 33.4961C120.891 33.6732 121.664 33.7598 122.507 33.7598C123.113 33.7598 123.741 33.7323 124.387 33.6811C125.032 33.6299 125.661 33.5591 126.267 33.4685C126.855 33.3976 127.409 33.315 127.927 33.2205C128.445 33.1221 128.88 33.0394 129.236 32.9685L130 37.315C129.491 37.5945 128.88 37.8386 128.164 38.0394C127.448 38.2402 126.68 38.4134 125.858 38.5512C125.037 38.689 124.176 38.8032 123.289 38.8819C122.397 38.9606 121.51 39 120.632 39C119.024 39 117.553 38.8032 116.209 38.4095C114.869 38.0158 113.718 37.3937 112.756 36.5512C111.795 35.7244 111.048 34.6654 110.508 33.3661C109.967 32.0669 109.699 30.5039 109.699 28.6772V14.6654H102V9.95276H109.699V3H116.749V9.9567H116.744Z" fill="#F7F4F3"/>
<path d="M154.279 10.4481V33.774H164V39H137V33.774H147.137V15.7018H137V10.4521H154.279V10.4481ZM161.275 0L153.185 7.20206H147.731L153.216 0H161.275Z" fill="#F7F4F3"/>
<path d="M0 45H31V53H0V45Z" fill="#F7F4F3"/>
</svg>
