<svg width="110" height="110" viewBox="0 0 110 110" fill="none" xmlns="http://www.w3.org/2000/svg">
<path d="M71.6661 1.54761L61.6037 39.2952C59.5073 47.1592 64.2242 55.3379 72.0849 57.4349L109.713 67.5009C110.761 63.4114 108.874 59.1126 105.101 57.2252L84.7677 47.1592C79.4222 44.6427 76.2778 39.0854 76.8017 33.3185L78.3736 10.9845C78.6883 6.58063 75.8585 2.59615 71.6661 1.54761Z" fill="#ECECEC" fill-opacity="0.8"/>
<path d="M82.3563 39.2932C83.7189 41.7049 85.92 43.4874 88.3305 44.3262C88.9597 44.5359 89.693 44.5359 90.3223 44.1165L100.699 38.1398C104.682 35.833 106.044 30.5904 103.528 26.6058C101.118 22.8311 96.0871 21.7826 92.3135 24.0894L82.147 29.9612C81.5177 30.2757 81.0984 30.9049 80.9937 31.6389C80.4698 34.1554 80.8891 36.8816 82.3563 39.2932Z" fill="#C7C7C8"/>
<path d="M1.43997 38.3493L39.1727 48.4153C47.0334 50.5124 55.2093 45.7939 57.3052 37.9298L67.3676 0.287137C63.28 -0.761408 58.9823 1.12597 57.0958 4.90072L47.0334 25.2425C44.5183 30.59 38.9628 33.7357 33.1986 33.2114L10.8731 31.6386C6.47087 31.4289 2.4879 34.1551 1.43997 38.3493Z" fill="#ECECEC"/>
<path d="M39.1716 27.7601C41.5821 26.397 43.3639 24.1951 44.2025 21.7835C44.4118 21.1543 44.4118 20.4204 43.9925 19.7912L38.0184 9.41066C35.7126 5.42617 30.4717 4.06305 26.4887 6.57955C22.7157 8.99119 21.6677 14.0242 23.9735 17.799L29.843 27.9698C30.1577 28.599 30.7863 29.0184 31.5202 29.1232C34.0354 29.5426 36.7605 29.1233 39.1716 27.7601Z" fill="#ECECEC"/>
<path d="M38.3343 108.287L48.3961 70.5392C50.4926 62.6755 45.7763 54.4966 37.915 52.3995L0.286937 42.3335C-0.760992 46.4229 1.12555 50.7219 4.89919 52.6092L25.2328 62.6755C30.5783 65.1919 33.7227 70.7492 33.1987 76.5158L31.6262 98.8497C31.3116 103.254 34.142 107.238 38.3343 108.287Z" fill="#ECECEC" fill-opacity="0.8"/>
<path d="M27.6423 70.5388C26.2798 68.1272 24.0786 66.3447 21.6682 65.5061C21.0395 65.2962 20.3056 65.2962 19.677 65.7155L9.2999 71.6927C5.31753 73.9991 3.95496 79.2418 6.47012 83.2266C8.8812 87.0014 13.9121 88.05 17.6852 85.7429L27.8523 79.871C28.4809 79.5564 28.9002 78.9271 29.0049 78.1932C29.5294 75.6769 29.1101 72.9505 27.6423 70.5388Z" fill="#ECECEC" fill-opacity="0.8"/>
<path d="M108.558 71.4831L70.8255 61.417C62.9648 59.3197 54.7889 64.038 52.693 71.9024L42.6306 109.545C46.7182 110.594 51.0158 108.706 52.9023 104.932L62.9648 84.5895C65.4799 79.2421 71.0354 76.0965 76.7996 76.6205L99.125 78.1936C103.527 78.4029 107.51 75.6772 108.558 71.4831Z" fill="#ECECEC"/>
<path d="M70.8268 82.0722C68.4157 83.4354 66.6339 85.6372 65.7953 88.0489C65.586 88.6781 65.5859 89.412 66.0052 90.0413L71.9794 100.421C74.2852 104.406 79.5261 105.769 83.5091 103.253C87.2821 100.841 88.3307 95.8079 86.0248 92.0331L80.1547 81.8623C79.8407 81.2331 79.2115 80.8138 78.4782 80.7091C75.9624 80.2898 73.2373 80.7091 70.8268 82.0722Z" fill="#ECECEC"/>
</svg>
