<svg width="8000" height="1954" viewBox="0 0 8000 1954" fill="none" xmlns="http://www.w3.org/2000/svg">
<path d="M7018.32 11.0146C6986.2 29.3711 6931.13 194.579 6899 378.143C6830.17 740.683 6779.69 846.232 6779.69 621.366C6779.69 419.445 6710.85 263.416 6605.3 235.881C6398.79 180.812 6394.2 235.881 6527.29 1098.63C6637.42 1842.07 6687.9 2085.29 6687.9 1887.96C6687.9 1823.71 6541.05 791.163 6476.81 437.802C6453.86 295.539 6463.04 286.361 6559.41 300.129C6651.19 313.896 6669.55 350.609 6710.85 607.599C6738.39 768.218 6779.69 910.48 6807.22 919.658C6834.76 928.836 6885.24 768.218 6931.13 515.817C6972.43 281.772 7018.32 84.4404 7027.5 70.673C7041.27 61.4948 7087.16 61.4948 7128.46 79.8513C7188.12 102.797 7197.3 144.099 7174.35 258.827C7105.51 603.01 7091.75 749.861 7133.05 749.861C7155.99 749.861 7252.37 603.01 7348.74 428.624C7440.52 249.648 7550.66 107.386 7587.37 107.386C7683.74 107.386 7665.38 208.346 7532.3 442.391L7417.57 653.49L7573.6 717.737C7816.83 823.287 8009.57 1116.99 7826 1116.99C7803.06 1116.99 7720.45 1066.51 7642.44 1002.26C7458.87 850.822 7307.43 855.411 7137.64 1025.21C7018.32 1149.11 6999.96 1190.42 7027.5 1337.27C7082.57 1686.04 7426.75 1773.23 7679.15 1507.06C7761.76 1419.87 7848.95 1346.45 7876.48 1346.45C7959.09 1346.45 7936.14 1507.06 7835.18 1630.97C7725.04 1777.82 7569.01 1842.07 7215.65 1892.55L6940.31 1933.85L7174.35 1938.44C7569.01 1947.62 7821.41 1823.71 7959.09 1562.13C8009.57 1461.17 8014.16 1415.28 7968.27 1364.8C7885.66 1263.84 7747.99 1286.79 7692.92 1410.69C7578.19 1658.5 7224.83 1667.68 7123.87 1424.46C6963.25 1038.97 7390.04 795.752 7688.33 1103.22C7807.65 1222.54 7871.89 1222.54 7945.32 1103.22C7982.03 1048.15 7982.03 1002.26 7945.32 942.604C7894.84 864.589 7651.62 681.024 7550.66 648.901C7513.94 635.133 7541.48 552.529 7624.08 410.267C7725.04 235.881 7738.81 180.812 7697.51 125.742C7601.14 11.0146 7513.94 56.9058 7367.09 290.95C7289.08 414.856 7220.24 520.406 7211.06 520.406C7201.88 520.406 7211.06 419.445 7224.83 295.539C7247.78 102.797 7238.6 66.0839 7160.58 24.782C7114.69 -2.75268 7045.86 -7.34179 7018.32 11.0146Z" fill="white"/>
<path d="M5788.44 222.116C5751.73 373.557 5815.98 437.804 5981.18 419.448C6095.91 405.681 6114.27 387.324 6114.27 268.007C6114.27 148.69 6095.91 130.334 5967.42 116.567C5838.92 102.799 5815.98 121.156 5788.44 222.116Z" fill="white"/>
<path d="M423.777 635.128C-191.164 855.405 -117.738 1759.46 520.148 1878.78C1102.96 1988.91 1525.16 1351.03 1199.34 855.405C1061.66 639.717 699.123 534.167 423.777 635.128ZM951.524 1025.2C1084.61 1273.01 905.633 1621.79 653.232 1621.79C391.653 1621.79 208.089 1231.71 373.297 1016.02C510.97 832.459 850.564 837.048 951.524 1025.2Z" fill="white"/>
<path d="M1594 1208.78V1851.26H1754.62C1906.06 1851.26 1915.24 1842.08 1915.24 1686.05C1915.24 1511.66 1984.07 1346.45 2052.91 1346.45C2080.44 1346.45 2163.05 1461.18 2241.06 1598.86C2369.56 1828.31 2397.09 1851.26 2539.35 1851.26C2718.33 1851.26 2722.92 1832.9 2612.78 1644.75C2566.89 1566.73 2475.11 1410.7 2406.27 1291.39L2282.36 1080.29L2493.46 846.242L2704.56 612.198H2521C2355.79 612.198 2314.49 639.732 2126.33 850.831L1915.24 1094.05V827.886V566.307H1754.62H1594V1208.78Z" fill="white"/>
<path d="M3250.67 603.003C2736.69 685.607 2612.78 1525.41 3071.69 1805.35C3264.44 1924.67 3475.53 1920.08 3631.56 1800.76C3727.94 1722.75 3750.88 1718.16 3750.88 1777.81C3750.88 1832.88 3796.77 1851.24 3911.5 1851.24H4072.12V1231.71V612.181H3911.5C3792.18 612.181 3750.88 630.538 3750.88 685.607C3750.88 745.265 3737.11 749.854 3686.63 708.552C3594.85 635.127 3383.75 580.057 3250.67 603.003ZM3682.04 993.077C3796.77 1158.28 3769.24 1415.27 3631.56 1525.41C3562.73 1580.48 3475.53 1621.78 3429.64 1621.78C3383.75 1621.78 3296.56 1580.48 3227.72 1525.41C3030.39 1373.97 3076.28 974.721 3301.15 892.117C3443.41 841.637 3604.03 882.938 3682.04 993.077Z" fill="white"/>
<path d="M4393.35 1231.73V1851.26H4531.03H4668.7V1493.31C4668.7 1075.7 4732.95 915.079 4911.92 896.722C5136.79 869.188 5173.5 947.203 5173.5 1419.88V1851.26H5338.71H5503.92L5485.56 1351.04C5471.79 892.133 5462.62 837.064 5361.66 731.514C5228.57 589.252 4934.87 566.307 4769.66 685.623C4677.88 749.871 4668.7 749.871 4668.7 685.623C4668.7 635.143 4622.81 612.198 4531.03 612.198H4393.35V1231.73Z" fill="white"/>
<path d="M5815.98 1231.73V1851.26H5953.65H6091.32V1231.73V612.198H5953.65H5815.98V1231.73Z" fill="white"/>
</svg>
