<svg width="288" height="56" viewBox="0 0 288 56" fill="none" xmlns="http://www.w3.org/2000/svg">
<path d="M26.2248 11.9855L16.8695 36.6031L7.61366 11.9855H0L12.5899 44.5603L12.2167 45.5052C11.8766 46.7317 11.1247 47.804 10.0872 48.542C9.04974 49.28 7.7898 49.6389 6.51888 49.5584C5.68751 49.5843 4.8554 49.5427 4.03076 49.4341H3.88147V55.2528H4.00588C5.20868 55.4258 6.42358 55.5006 7.63854 55.4766C14.0828 55.4766 17.591 52.5673 20.7012 44.3116L33.1418 12.1595V11.9855H26.2248Z" fill="#FAFEFF"/>
<path d="M82.2572 32.5749C82.2572 33.7933 82.2572 34.6139 82.2572 35.4345C82.4313 37.0011 83.128 37.5232 85.8649 37.3492V42.8944C84.2117 43.0624 82.5503 43.1371 80.8887 43.1182C76.9326 43.1182 75.3402 41.6759 75.166 37.6476C75.166 36.2551 75.166 34.788 75.166 32.6743V0H82.2572V32.5749Z" fill="#FAFEFF"/>
<path d="M143.69 27.3529C143.69 36.7027 137.942 43.5906 127.617 43.5906C117.291 43.5906 111.518 36.8021 111.518 27.3529C111.518 17.9037 117.291 11.1152 127.617 11.1152C137.942 11.1152 143.69 18.0529 143.69 27.3529ZM136.449 27.3529C136.449 20.6888 132.444 16.735 127.617 16.735C122.79 16.735 118.983 20.7882 118.983 27.3529C118.983 33.9176 122.765 37.9708 127.617 37.9708C132.469 37.9708 136.449 34.0668 136.449 27.3529Z" fill="#FAFEFF"/>
<path d="M186.958 43.0436H177.877L172.627 19.2962L167.327 43.0436H158.171L148.218 11.8612H155.683L162.674 36.3048L167.651 11.9855H177.329L182.554 36.2551L189.372 11.8612H196.712L186.958 43.0436Z" fill="#FAFEFF"/>
<path d="M247.12 15.3424C249.272 18.2891 250.32 21.8974 250.081 25.5376V42.944H243.164V25.9106C243.34 23.7073 242.836 21.5031 241.721 19.5945C241.152 18.8921 240.418 18.3407 239.585 17.9894C238.752 17.6381 237.844 17.4976 236.944 17.5804C235.958 17.4894 234.965 17.6439 234.053 18.0301C233.141 18.4162 232.339 19.0221 231.719 19.7935C230.579 21.5326 230.014 23.5849 230.102 25.6619V42.8943H223.259V26.3333C223.455 23.9864 222.907 21.6374 221.692 19.6194C221.114 18.9255 220.38 18.3787 219.549 18.0241C218.719 17.6696 217.815 17.5175 216.914 17.5804C215.475 17.543 214.048 17.8589 212.759 18.5004C211.776 19.0229 210.925 19.7628 210.271 20.6638V42.8943H203.304V12.0849H209.45V14.5715C212.086 12.5931 215.34 11.6149 218.631 11.8114C220.477 11.7042 222.315 12.1127 223.941 12.9911C225.567 13.8695 226.916 15.1831 227.837 16.7846C228.887 15.2249 230.34 13.9788 232.042 13.179C233.943 12.3009 236.019 11.8672 238.113 11.9108C239.776 11.7673 241.45 12.0014 243.01 12.5956C244.57 13.1899 245.975 14.1289 247.12 15.3424Z" fill="#FAFEFF"/>
<path d="M287.9 29.4914H264.661C265.184 35.9815 269.289 38.0205 273.021 38.0205C276.754 38.0205 280.287 36.1058 280.809 32.7986H287.552C285.96 39.985 280.088 43.6403 272.847 43.6403C264.338 43.6403 257.744 38.3687 257.744 27.5269C257.744 18.0778 263.99 11.1649 273.494 11.1649C282.999 11.1649 288 18.3513 288 26.7561C288 27.527 288 28.447 287.9 29.4914ZM264.885 24.2695H282.028C281.835 22.2185 280.88 20.3144 279.351 18.9332C277.821 17.5521 275.829 16.7943 273.768 16.8096C271.636 16.7719 269.562 17.5064 267.929 18.8776C266.297 20.2487 265.215 22.1639 264.885 24.2695Z" fill="#FAFEFF"/>
<path d="M101.366 32.5749C101.366 33.7933 101.366 34.6139 101.366 35.4345C101.54 37.0011 102.237 37.5232 104.974 37.3492V42.8944C103.321 43.0624 101.659 43.1371 99.9975 43.1182C96.0414 43.1182 94.4241 41.6759 94.2499 37.6476C94.2499 36.2551 94.2499 34.788 94.2499 32.6743V0H101.391L101.366 32.5749Z" fill="#FAFEFF"/>
<path d="M66.7067 29.4914H43.4677C43.9902 35.9815 48.1205 38.0206 51.8526 38.0206C55.5848 38.0206 59.118 36.1059 59.6405 32.7986H66.3584C64.7909 39.985 58.894 43.6404 51.6785 43.6404C43.1442 43.6404 36.5756 38.3687 36.5756 27.527C36.5756 18.0778 42.7959 11.1898 52.3005 11.1898C61.8051 11.1898 66.8311 18.3762 66.8311 26.781C66.8454 27.6862 66.8038 28.5914 66.7067 29.4914ZM43.6916 24.2944H60.8597C60.6248 22.2839 59.648 20.4332 58.1204 19.1042C56.5927 17.7752 54.624 17.0634 52.5991 17.108C50.4974 17.0333 48.4393 17.719 46.8029 19.0392C45.1665 20.3594 44.0617 22.2254 43.6916 24.2944Z" fill="#FAFEFF"/>
</svg>
