<svg width="343" height="104" viewBox="0 0 343 104" fill="none" xmlns="http://www.w3.org/2000/svg">
<g clip-path="url(#clip0)">
<path d="M95.1 78.9H88.3V56.8C88.3 50.6 86.3 47.4 79.8 47.4C76 47.4 69.3 49.6 69.3 59.4V78.9H62.8V42.9H69V48H69.2C72 44.1 76.4 41.9 81.2 41.9C87.3 41.9 95.1 44.2 95.1 54.4V78.9Z" fill="#E54800"/>
<path d="M140.3 67.5C139.4 71.6 136.9 75.2 133.3 77.4C131.5 78.5 128.9 79.9 122.6 79.9C111.5 79.9 104.9 72.3 104.9 61.9C104.9 50.8 110.8 41.9 123.9 41.9C135.3 41.9 140.9 50.1 140.9 62.9H112C112 70.3 115.9 74.7 123.5 74.7C129.8 74.7 133.5 70.3 133.7 67.5H140.3ZM134 58C133.6 52.4 131.1 47.3 123 47.3C117 47.3 112.2 52.1 112 58H134Z" fill="#E54800"/>
<path d="M150.8 54C151.1 45.4 157.3 42 166.9 42C170 42 181.4 42.8 181.4 52V72.7C181.3 73.7 182 74.7 183 74.8C183.2 74.8 183.4 74.8 183.5 74.8C184.2 74.8 185 74.7 185.7 74.5V79C184.5 79.4 183.3 79.6 182.1 79.7C176.3 79.7 175.4 76.9 175.1 74.2C171.5 78.1 166.3 80.2 161 80C153.8 80 148.7 75.8 148.7 69.6C148.7 66.6 149.7 59.6 160.6 58.3L171.4 57.1C173 57 174.8 56.4 174.8 52.8C174.8 49 171.8 47 165.6 47C158.1 47 157.1 51.2 156.6 53.9L150.8 54ZM174.7 60.5C173.6 61.3 172 61.8 163.7 62.8C160.5 63.2 155.2 64.1 155.2 68.6C155.2 72.5 157.4 74.8 162.4 74.8C168.6 74.8 174.6 71.2 174.6 66.4L174.7 60.5Z" fill="#E54800"/>
<path d="M202.1 78.9H195.6V42.9H201.8V48.9H201.9C204.5 44.7 208 41.9 213 41.9C213.6 41.9 214.2 42 214.7 42.1V48.3H212.2C206 48.3 202 52.7 202 58L202.1 78.9Z" fill="#E54800"/>
<path d="M244.1 53.1C244 50.9 243.1 47.1 234.8 47.1C232.8 47.1 227 47.7 227 52.2C227 55.1 229 55.8 234.1 57L240.7 58.5C248.9 60.3 251.8 63.1 251.8 67.9C251.8 75.3 245.1 79.7 236.2 79.7C220.6 79.7 219.5 71.5 219.3 67.2H225.7C225.9 70 226.8 74.5 236.2 74.5C240.9 74.5 245.2 72.8 245.2 68.8C245.2 65.9 243 65 237.4 63.7L229.8 61.9C224.3 60.7 220.7 58.1 220.7 53.2C220.7 45.3 227.8 41.8 235.6 41.8C249.7 41.8 250.6 51.2 250.6 53L244.1 53.1Z" fill="#606A70"/>
<path d="M277.5 41.9C290.1 41.9 295.9 51.6 295.9 60.9C295.9 70.2 290.1 79.9 277.5 79.9C264.9 79.9 259.1 70.2 259.1 60.9C259.1 51.6 264.8 41.9 277.5 41.9ZM277.5 74.6C287 74.6 289 65.7 289 60.8C289 55.9 287 47 277.5 47C268 47 266 56 266 60.8C266 65.6 267.9 74.6 277.5 74.6Z" fill="#606A70"/>
<path d="M313.7 48V78.9H306.9V48H301.5V42.8H306.9V36.6C306.9 31.2 310.7 28.7 317.2 28.7C318.2 28.7 319.2 28.8 320.2 28.8V34C319.4 33.9 318.3 33.9 317.5 33.9C314.7 33.9 313.7 35.2 313.7 38.2V42.8H320.2V48H313.7Z" fill="#606A70"/>
<path d="M336.5 48V71.2C336.5 74 339.1 74 340.5 74H342.7V78.7C340.3 78.9 338.4 79.2 337.7 79.2C331.1 79.2 329.7 75.8 329.7 71.5V48H324.3V42.8H329.7V32.8H336.5V42.8H342.7V48H336.5Z" fill="#606A70"/>
<path d="M54.9 24.2C53.4 23.1 51.7 22.5 49.8 22.5H43.5L40.8 25.2H49.7C50.9 25.2 52.2 25.6 53.2 26.3C53.9 26.8 54.4 27.7 54.4 28.6C54.4 30.4 52.2 32 49.7 32H41.2L44 34.8H49.8C53.9 34.8 57.2 32.1 57.2 28.7C57.2 26.9 56.3 25.2 54.9 24.2Z" fill="#E54800"/>
<path d="M32 40.4H31.9V50C31.9 52.5 30.4 54.6 28.5 54.6C26.6 54.6 25.2 52.5 25.2 50V40.6L22.5 43.3V50.1C22.5 54.1 25.2 57.4 28.6 57.4C32 57.4 34.7 54.1 34.7 50.1V42.9L32 40.4Z" fill="#E54800"/>
<path d="M28.5 0C26.8 0 25.1 0.9 24.1 2.3C23 3.7 22.4 5.5 22.4 7.4V14L25.1 16.6V7.4C25.1 6.2 25.5 5 26.2 4C26.7 3.3 27.6 2.8 28.5 2.8C30.3 2.8 31.9 4.9 31.9 7.4V16.4L34.6 13.7V7.3C34.6 3.3 31.9 0 28.5 0Z" fill="#E54800"/>
<path d="M16.3 32H7.5C5 32 2.8 30.4 2.8 28.6C2.8 27.7 3.3 26.9 4 26.3C5 25.6 6.2 25.2 7.4 25.2H16.3L13.5 22.5H7.4C5.6 22.5 3.8 23.1 2.3 24.2C0.9 25.2 0 26.9 0 28.6C0 32 3.3 34.7 7.4 34.7H13.5L16.3 32Z" fill="#E54800"/>
<path d="M48.6 39.2L44 34.8L41.1 32L40.8 31.7C39.9 30.9 39.4 29.7 39.4 28.5C39.4 27.3 39.9 26.2 40.7 25.3L43.5 22.5L47.8 18.2C49.3 16.7 50.2 14.7 50.3 12.6C50.3 11.1 49.7 9.7 48.7 8.6C46.3 6.2 42 6.6 39 9.5L34.7 13.7L32 16.5L31.9 16.6C30 18.4 27.1 18.4 25.3 16.6L22.4 13.9L17.5 9.2C14.6 6.3 10.2 6 7.8 8.3C6.7 9.4 6.2 10.8 6.2 12.3C6.3 14.4 7.2 16.4 8.7 17.9L13.4 22.5L16.3 25.3C18.1 27 18.1 29.8 16.4 31.6L16.3 31.7L16.1 31.9L13.2 34.7L9.1 38.7C7.6 40.2 6.7 42.2 6.7 44.3C6.7 45.8 7.3 47.2 8.3 48.3C10.8 50.7 15.1 50.2 18 47.4L22.2 43.3L25 40.5L25.2 40.3C27 38.5 29.9 38.5 31.8 40.2L31.9 40.3L34.6 43L39.7 47.9C42.6 50.7 47 51.1 49.4 48.7C50.5 47.6 51 46.2 51 44.7C51.1 42.6 50.2 40.6 48.6 39.2ZM47.6 46.7C46.3 48 43.7 47.6 41.9 45.8L34 38.3C31 35.5 26.3 35.5 23.4 38.4L16.2 45.5C14.4 47.3 11.8 47.7 10.4 46.4C9.9 45.9 9.6 45.1 9.6 44.4C9.7 43 10.2 41.8 11.2 40.8L18.4 33.7C21.3 30.9 21.3 26.2 18.5 23.4L18.4 23.3L10.7 15.9C9.7 15 9.1 13.7 9 12.3C9 11.6 9.2 10.9 9.7 10.4C11 9.1 13.6 9.5 15.4 11.3L23.1 18.7C26.1 21.5 30.8 21.5 33.7 18.6L40.9 11.5C42.7 9.7 45.3 9.3 46.7 10.6C47.2 11.1 47.5 11.9 47.5 12.6C47.4 14 46.9 15.2 45.9 16.2L38.7 23.3C35.8 26.1 35.8 30.7 38.6 33.6C38.7 33.7 38.7 33.7 38.8 33.8L46.6 41.4C47.6 42.3 48.2 43.6 48.3 45C48.3 45.5 48.1 46.2 47.6 46.7Z" fill="#606A70"/>
<path d="M71.3478 97.9128C70.7926 97.9128 70.3498 97.7493 70.0193 97.4223C69.702 97.0817 69.5038 96.6322 69.4244 96.0736H69.3055C69.1336 96.7684 68.7833 97.2929 68.2546 97.6471C67.7258 97.9877 67.0715 98.158 66.2915 98.158C65.234 98.158 64.421 97.8719 63.8526 97.2997C63.2842 96.7275 63 95.9646 63 95.0109C63 93.9074 63.3834 93.0899 64.1501 92.5586C64.9168 92.0136 66.0073 91.7411 67.4218 91.7411H69.1865V90.9646C69.1865 90.3651 69.0345 89.9019 68.7304 89.5749C68.4264 89.248 67.9373 89.0845 67.2631 89.0845C66.6683 89.0845 66.1858 89.2207 65.8157 89.4932C65.4587 89.752 65.1547 90.0654 64.9035 90.4332L63.3966 89.0436C63.7799 88.4305 64.2889 87.9401 64.9234 87.5722C65.5579 87.1907 66.3973 87 67.4416 87C68.8428 87 69.9069 87.327 70.634 87.9809C71.361 88.6349 71.7246 89.5749 71.7246 90.8011V95.8283H72.7556V97.9128H71.3478ZM67.1442 96.2575C67.7126 96.2575 68.1951 96.1281 68.5916 95.8692C68.9882 95.6104 69.1865 95.2289 69.1865 94.7248V93.3147H67.5606C66.2387 93.3147 65.5777 93.7507 65.5777 94.6226V94.97C65.5777 95.406 65.7099 95.733 65.9743 95.951C66.2519 96.1553 66.6418 96.2575 67.1442 96.2575Z" fill="#606A70"/>
<path d="M81.1549 97.9128V87.2452H83.6929V89.0232H83.7921C84.0036 88.451 84.3341 87.9741 84.7835 87.5926C85.2462 87.1975 85.8807 87 86.687 87C87.7578 87 88.5774 87.361 89.1458 88.0831C89.7142 88.8052 89.9984 89.8338 89.9984 91.1689V97.9128H87.4604V91.4346C87.4604 90.6717 87.3282 90.0995 87.0638 89.718C86.7994 89.3365 86.3632 89.1458 85.7551 89.1458C85.4907 89.1458 85.2329 89.1866 84.9818 89.2684C84.7438 89.3365 84.5257 89.4455 84.3274 89.5954C84.1424 89.7316 83.9904 89.9087 83.8714 90.1267C83.7524 90.3311 83.6929 90.5763 83.6929 90.8624V97.9128H81.1549Z" fill="#606A70"/>
<path d="M114.372 98.158C113.605 98.158 112.918 98.0286 112.31 97.7698C111.715 97.4973 111.206 97.1226 110.783 96.6458C110.373 96.1553 110.056 95.5695 109.831 94.8883C109.607 94.1935 109.494 93.4169 109.494 92.5586C109.494 91.7139 109.6 90.951 109.811 90.2698C110.036 89.5886 110.353 89.0095 110.763 88.5327C111.173 88.0422 111.675 87.6676 112.27 87.4087C112.865 87.1362 113.539 87 114.293 87C115.099 87 115.8 87.1431 116.395 87.4292C116.989 87.7153 117.478 88.1035 117.862 88.594C118.245 89.0845 118.529 89.6567 118.714 90.3106C118.913 90.951 119.012 91.639 119.012 92.3747V93.233H112.131V93.4986C112.131 94.2752 112.343 94.9019 112.766 95.3787C113.189 95.842 113.817 96.0736 114.65 96.0736C115.284 96.0736 115.8 95.9373 116.196 95.6648C116.606 95.3924 116.97 95.045 117.287 94.6226L118.655 96.1962C118.232 96.8093 117.65 97.2929 116.91 97.6471C116.183 97.9877 115.337 98.158 114.372 98.158ZM114.332 88.9619C113.658 88.9619 113.123 89.1935 112.726 89.6567C112.33 90.1199 112.131 90.7193 112.131 91.455V91.6185H116.375V91.4346C116.375 90.6989 116.196 90.1063 115.839 89.6567C115.496 89.1935 114.993 88.9619 114.332 88.9619Z" fill="#606A70"/>
<path d="M127.59 97.9128V87.2452H130.128V89.0232H130.227C130.439 88.451 130.769 87.9741 131.219 87.5926C131.681 87.1975 132.316 87 133.122 87C134.193 87 135.013 87.361 135.581 88.0831C136.149 88.8052 136.434 89.8338 136.434 91.1689V97.9128H133.896V91.4346C133.896 90.6717 133.763 90.0995 133.499 89.718C133.235 89.3365 132.798 89.1458 132.19 89.1458C131.926 89.1458 131.668 89.1866 131.417 89.2684C131.179 89.3365 130.961 89.4455 130.763 89.5954C130.578 89.7316 130.426 89.9087 130.307 90.1267C130.188 90.3311 130.128 90.5763 130.128 90.8624V97.9128H127.59Z" fill="#606A70"/>
<path d="M149.677 98.158C148.91 98.158 148.229 98.0286 147.635 97.7698C147.04 97.5109 146.537 97.1362 146.128 96.6458C145.731 96.1553 145.427 95.5695 145.215 94.8883C145.004 94.1935 144.898 93.4169 144.898 92.5586C144.898 91.7003 145.004 90.9305 145.215 90.2493C145.427 89.5681 145.731 88.9891 146.128 88.5123C146.537 88.0218 147.04 87.6471 147.635 87.3883C148.229 87.1294 148.91 87 149.677 87C150.721 87 151.58 87.2384 152.255 87.7153C152.942 88.1921 153.438 88.8529 153.742 89.6975L151.66 90.658C151.541 90.2084 151.316 89.8406 150.986 89.5545C150.668 89.2548 150.232 89.1049 149.677 89.1049C148.963 89.1049 148.428 89.3365 148.071 89.7997C147.727 90.2629 147.555 90.8692 147.555 91.6185V93.5599C147.555 94.3093 147.727 94.9155 148.071 95.3787C148.428 95.8283 148.963 96.0531 149.677 96.0531C150.285 96.0531 150.754 95.8965 151.085 95.5831C151.415 95.2561 151.673 94.8542 151.858 94.3774L153.801 95.3379C153.458 96.2779 152.935 96.9864 152.235 97.4632C151.534 97.9264 150.682 98.158 149.677 98.158Z" fill="#606A70"/>
<path d="M166.111 98.158C165.371 98.158 164.703 98.0286 164.108 97.7698C163.527 97.5109 163.024 97.1362 162.601 96.6458C162.192 96.1553 161.874 95.5695 161.65 94.8883C161.425 94.1935 161.312 93.4169 161.312 92.5586C161.312 91.7003 161.425 90.9305 161.65 90.2493C161.874 89.5681 162.192 88.9891 162.601 88.5123C163.024 88.0218 163.527 87.6471 164.108 87.3883C164.703 87.1294 165.371 87 166.111 87C166.851 87 167.519 87.1294 168.114 87.3883C168.709 87.6471 169.211 88.0218 169.621 88.5123C170.044 88.9891 170.368 89.5681 170.592 90.2493C170.817 90.9305 170.929 91.7003 170.929 92.5586C170.929 93.4169 170.817 94.1935 170.592 94.8883C170.368 95.5695 170.044 96.1553 169.621 96.6458C169.211 97.1362 168.709 97.5109 168.114 97.7698C167.519 98.0286 166.851 98.158 166.111 98.158ZM166.111 96.0531C166.785 96.0531 167.314 95.842 167.697 95.4196C168.081 94.9973 168.272 94.3774 168.272 93.5599V91.5777C168.272 90.7738 168.081 90.1608 167.697 89.7384C167.314 89.3161 166.785 89.1049 166.111 89.1049C165.45 89.1049 164.928 89.3161 164.545 89.7384C164.161 90.1608 163.97 90.7738 163.97 91.5777V93.5599C163.97 94.3774 164.161 94.9973 164.545 95.4196C164.928 95.842 165.45 96.0531 166.111 96.0531Z" fill="#606A70"/>
<path d="M179.525 97.9128V87.2452H182.063V89.4523H182.162C182.228 89.1662 182.327 88.8937 182.459 88.6349C182.605 88.3624 182.79 88.124 183.014 87.9196C183.239 87.7153 183.503 87.5518 183.808 87.4292C184.125 87.3065 184.488 87.2452 184.898 87.2452H185.453V89.718H184.66C183.801 89.718 183.153 89.8474 182.717 90.1063C182.281 90.3651 182.063 90.7875 182.063 91.3733V97.9128H179.525Z" fill="#606A70"/>
<path d="M201.055 97.9128C200.5 97.9128 200.057 97.7493 199.727 97.4223C199.409 97.0817 199.211 96.6322 199.132 96.0736H199.013C198.841 96.7684 198.491 97.2929 197.962 97.6471C197.433 97.9877 196.779 98.158 195.999 98.158C194.941 98.158 194.128 97.8719 193.56 97.2997C192.991 96.7275 192.707 95.9646 192.707 95.0109C192.707 93.9074 193.091 93.0899 193.857 92.5586C194.624 92.0136 195.715 91.7411 197.129 91.7411H198.894V90.9646C198.894 90.3651 198.742 89.9019 198.438 89.5749C198.134 89.248 197.645 89.0845 196.97 89.0845C196.376 89.0845 195.893 89.2207 195.523 89.4932C195.166 89.752 194.862 90.0654 194.611 90.4332L193.104 89.0436C193.487 88.4305 193.996 87.9401 194.631 87.5722C195.265 87.1907 196.105 87 197.149 87C198.55 87 199.614 87.327 200.341 87.9809C201.068 88.6349 201.432 89.5749 201.432 90.8011V95.8283H202.463V97.9128H201.055ZM196.851 96.2575C197.42 96.2575 197.902 96.1281 198.299 95.8692C198.695 95.6104 198.894 95.2289 198.894 94.7248V93.3147H197.268C195.946 93.3147 195.285 93.7507 195.285 94.6226V94.97C195.285 95.406 195.417 95.733 195.682 95.951C195.959 96.1553 196.349 96.2575 196.851 96.2575Z" fill="#606A70"/>
<path d="M225.978 98.158C225.211 98.158 224.53 98.0286 223.936 97.7698C223.341 97.5109 222.838 97.1362 222.429 96.6458C222.032 96.1553 221.728 95.5695 221.517 94.8883C221.305 94.1935 221.199 93.4169 221.199 92.5586C221.199 91.7003 221.305 90.9305 221.517 90.2493C221.728 89.5681 222.032 88.9891 222.429 88.5123C222.838 88.0218 223.341 87.6471 223.936 87.3883C224.53 87.1294 225.211 87 225.978 87C227.022 87 227.882 87.2384 228.556 87.7153C229.243 88.1921 229.739 88.8529 230.043 89.6975L227.961 90.658C227.842 90.2084 227.617 89.8406 227.287 89.5545C226.969 89.2548 226.533 89.1049 225.978 89.1049C225.264 89.1049 224.729 89.3365 224.372 89.7997C224.028 90.2629 223.856 90.8692 223.856 91.6185V93.5599C223.856 94.3093 224.028 94.9155 224.372 95.3787C224.729 95.8283 225.264 96.0531 225.978 96.0531C226.586 96.0531 227.055 95.8965 227.386 95.5831C227.716 95.2561 227.974 94.8542 228.159 94.3774L230.102 95.3379C229.759 96.2779 229.236 96.9864 228.536 97.4632C227.835 97.9264 226.983 98.158 225.978 98.158Z" fill="#606A70"/>
<path d="M242.412 98.158C241.672 98.158 241.004 98.0286 240.409 97.7698C239.828 97.5109 239.325 97.1362 238.902 96.6458C238.493 96.1553 238.175 95.5695 237.951 94.8883C237.726 94.1935 237.614 93.4169 237.614 92.5586C237.614 91.7003 237.726 90.9305 237.951 90.2493C238.175 89.5681 238.493 88.9891 238.902 88.5123C239.325 88.0218 239.828 87.6471 240.409 87.3883C241.004 87.1294 241.672 87 242.412 87C243.152 87 243.82 87.1294 244.415 87.3883C245.01 87.6471 245.512 88.0218 245.922 88.5123C246.345 88.9891 246.669 89.5681 246.893 90.2493C247.118 90.9305 247.23 91.7003 247.23 92.5586C247.23 93.4169 247.118 94.1935 246.893 94.8883C246.669 95.5695 246.345 96.1553 245.922 96.6458C245.512 97.1362 245.01 97.5109 244.415 97.7698C243.82 98.0286 243.152 98.158 242.412 98.158ZM242.412 96.0531C243.086 96.0531 243.615 95.842 243.998 95.4196C244.382 94.9973 244.573 94.3774 244.573 93.5599V91.5777C244.573 90.7738 244.382 90.1608 243.998 89.7384C243.615 89.3161 243.086 89.1049 242.412 89.1049C241.751 89.1049 241.229 89.3161 240.846 89.7384C240.462 90.1608 240.271 90.7738 240.271 91.5777V93.5599C240.271 94.3774 240.462 94.9973 240.846 95.4196C241.229 95.842 241.751 96.0531 242.412 96.0531Z" fill="#606A70"/>
<path d="M255.826 97.9128V87.2452H258.364V89.0232H258.463C258.661 88.4646 258.978 87.9877 259.415 87.5926C259.851 87.1975 260.459 87 261.239 87C261.953 87 262.567 87.1771 263.083 87.5313C263.598 87.8856 263.982 88.4237 264.233 89.1458H264.273C264.458 88.5463 264.821 88.0422 265.363 87.6335C265.918 87.2112 266.612 87 267.445 87C268.463 87 269.243 87.361 269.785 88.0831C270.34 88.8052 270.618 89.8338 270.618 91.1689V97.9128H268.08V91.4346C268.08 89.9087 267.524 89.1458 266.414 89.1458C266.163 89.1458 265.918 89.1866 265.68 89.2684C265.456 89.3365 265.251 89.4455 265.066 89.5954C264.894 89.7316 264.755 89.9087 264.649 90.1267C264.544 90.3311 264.491 90.5763 264.491 90.8624V97.9128H261.953V91.4346C261.953 89.9087 261.397 89.1458 260.287 89.1458C260.049 89.1458 259.811 89.1866 259.573 89.2684C259.349 89.3365 259.144 89.4455 258.959 89.5954C258.787 89.7316 258.641 89.9087 258.522 90.1267C258.417 90.3311 258.364 90.5763 258.364 90.8624V97.9128H255.826Z" fill="#606A70"/>
<path d="M279.772 87.2452H282.311V89.0027H282.39C282.575 88.3896 282.925 87.906 283.441 87.5518C283.956 87.1839 284.558 87 285.245 87C286.567 87 287.572 87.4837 288.259 88.451C288.96 89.4046 289.31 90.7738 289.31 92.5586C289.31 94.3569 288.96 95.7398 288.259 96.7071C287.572 97.6744 286.567 98.158 285.245 98.158C284.558 98.158 283.956 97.9741 283.441 97.6063C282.938 97.2384 282.588 96.748 282.39 96.1349H282.311V102H279.772V87.2452ZM284.432 95.9918C285.093 95.9918 285.629 95.767 286.038 95.3174C286.448 94.8678 286.653 94.2616 286.653 93.4986V91.6594C286.653 90.8965 286.448 90.2902 286.038 89.8406C285.629 89.3774 285.093 89.1458 284.432 89.1458C283.824 89.1458 283.315 89.3025 282.905 89.6158C282.509 89.9292 282.311 90.3447 282.311 90.8624V94.2548C282.311 94.8134 282.509 95.2425 282.905 95.5422C283.315 95.842 283.824 95.9918 284.432 95.9918Z" fill="#606A70"/>
<path d="M305.621 97.9128C305.066 97.9128 304.623 97.7493 304.293 97.4223C303.975 97.0817 303.777 96.6322 303.698 96.0736H303.579C303.407 96.7684 303.057 97.2929 302.528 97.6471C301.999 97.9877 301.345 98.158 300.565 98.158C299.507 98.158 298.694 97.8719 298.126 97.2997C297.558 96.7275 297.273 95.9646 297.273 95.0109C297.273 93.9074 297.657 93.0899 298.423 92.5586C299.19 92.0136 300.281 91.7411 301.695 91.7411H303.46V90.9646C303.46 90.3651 303.308 89.9019 303.004 89.5749C302.7 89.248 302.211 89.0845 301.536 89.0845C300.942 89.0845 300.459 89.2207 300.089 89.4932C299.732 89.752 299.428 90.0654 299.177 90.4332L297.67 89.0436C298.053 88.4305 298.562 87.9401 299.197 87.5722C299.831 87.1907 300.671 87 301.715 87C303.116 87 304.18 87.327 304.907 87.9809C305.634 88.6349 305.998 89.5749 305.998 90.8011V95.8283H307.029V97.9128H305.621ZM301.417 96.2575C301.986 96.2575 302.468 96.1281 302.865 95.8692C303.262 95.6104 303.46 95.2289 303.46 94.7248V93.3147H301.834C300.512 93.3147 299.851 93.7507 299.851 94.6226V94.97C299.851 95.406 299.983 95.733 300.248 95.951C300.525 96.1553 300.915 96.2575 301.417 96.2575Z" fill="#606A70"/>
<path d="M315.428 97.9128V87.2452H317.966V89.0232H318.065C318.277 88.451 318.607 87.9741 319.057 87.5926C319.52 87.1975 320.154 87 320.96 87C322.031 87 322.851 87.361 323.419 88.0831C323.988 88.8052 324.272 89.8338 324.272 91.1689V97.9128H321.734V91.4346C321.734 90.6717 321.602 90.0995 321.337 89.718C321.073 89.3365 320.637 89.1458 320.028 89.1458C319.764 89.1458 319.506 89.1866 319.255 89.2684C319.017 89.3365 318.799 89.4455 318.601 89.5954C318.416 89.7316 318.264 89.9087 318.145 90.1267C318.026 90.3311 317.966 90.5763 317.966 90.8624V97.9128H315.428Z" fill="#606A70"/>
<path d="M339.621 87.2452H342L337.836 99.8134C337.704 100.195 337.552 100.522 337.38 100.794C337.221 101.08 337.03 101.312 336.805 101.489C336.58 101.666 336.309 101.796 335.992 101.877C335.675 101.959 335.305 102 334.882 102H333.355V99.9155H335.219L335.695 98.4237L331.987 87.2452H334.505L336.309 92.8856L336.983 95.5831H337.102L337.816 92.8856L339.621 87.2452Z" fill="#606A70"/>
</g>
<defs>
<clipPath id="clip0">
<rect width="342.7" height="103.8" fill="white"/>
</clipPath>
</defs>
</svg>
