<svg width="280" height="73" viewBox="0 0 280 73" fill="none" xmlns="http://www.w3.org/2000/svg">
<g clip-path="url(#clip0)" filter="url(#filter0_d)">
<path d="M94.1246 35.16C94.3961 34.8874 94.939 34.615 95.4818 34.615H115.298C118.284 34.615 119.913 34.3423 120.456 33.7972C121.813 32.9795 122.356 31.8894 122.356 30.5266C122.356 28.8912 121.542 27.801 119.642 26.9833C119.37 26.7107 117.741 26.7107 115.298 26.7107H101.997C97.6535 26.7107 94.939 24.8028 93.5817 20.7144C93.5817 19.6242 93.5817 18.8065 93.5817 17.9888C93.5817 14.173 95.2105 11.72 98.468 10.0847C99.5537 9.81211 100.64 9.53955 101.725 9.53955H126.971C127.514 9.53955 128.057 9.81211 128.328 10.0847C128.871 10.3572 128.871 10.9023 128.871 11.4475V13.6279C128.871 14.173 128.6 14.7182 128.328 14.9907C128.057 15.2633 127.514 15.5358 126.971 15.5358H105.254C102.54 15.5358 101.183 15.8084 100.911 16.3535C100.64 16.6261 100.368 17.1712 100.368 17.7163C100.368 18.8065 101.183 19.6242 102.811 19.8968C103.354 19.8968 104.44 19.8968 105.797 19.8968H119.37C123.442 19.8968 126.428 21.8047 128.328 25.8929C128.871 27.256 129.143 28.6187 129.143 29.9815C129.143 33.7972 127.514 36.7955 124.256 38.976C122.899 39.7935 121.27 40.3387 119.37 40.3387H95.7534C95.2105 40.3387 94.6674 40.0661 94.3961 39.7935C94.1246 39.521 93.8532 38.976 93.8532 38.4307V36.2502C93.5817 35.9777 93.8532 35.4327 94.1246 35.16Z" fill="#F5F5F5"/>
<path d="M154.115 9.53955C159.002 9.53955 163.074 11.72 166.331 16.3535C167.96 19.0791 168.774 21.8047 168.774 24.8028V25.8929C168.774 30.799 166.874 34.8874 162.802 38.1582C160.087 40.0661 157.373 41.1562 154.115 41.1562H145.7C141.086 41.1562 137.285 39.2484 134.299 35.4327C132.127 32.7071 131.042 29.4362 131.042 25.8929V24.8028C131.042 20.1693 132.942 16.0809 136.471 13.0828C139.185 10.9023 142.443 9.81211 145.7 9.81211H154.115V9.53955ZM137.285 25.0754C137.285 27.801 138.371 30.2539 140.814 32.4345C142.443 33.7972 144.886 34.615 147.872 34.615H150.044C153.844 34.615 156.016 34.3423 156.559 33.7972C158.459 32.9795 160.087 31.3443 161.173 29.1638C161.716 27.801 161.988 26.4382 161.988 25.0754C161.988 22.3498 160.63 19.8968 158.187 17.7163C156.559 16.3535 154.387 15.8084 151.129 15.8084H148.958C145.429 15.8084 143.257 16.0809 142.443 16.6261C141.628 16.8986 140.271 17.7163 138.914 19.0791C138.099 21.2596 137.285 23.1674 137.285 25.0754Z" fill="#F5F5F5"/>
<path d="M171.489 10.0847C171.76 9.81211 172.303 9.53955 172.846 9.53955H175.017C176.375 9.53955 176.918 10.3572 176.918 11.9926V21.5321C176.918 25.3479 177.189 27.5284 177.732 28.3461C178.546 30.5266 180.175 32.4344 182.347 33.5246C183.432 34.3423 185.604 34.615 188.862 34.615H204.063C204.606 34.615 205.149 34.8874 205.42 35.16C205.692 35.4327 205.963 35.9777 205.963 36.5228V38.7033C205.963 39.2484 205.692 39.7934 205.42 40.0661C205.149 40.6112 204.878 40.8838 204.063 40.8838H185.604C180.989 40.8838 177.189 38.976 174.203 35.16C172.031 32.4344 170.945 29.1638 170.945 25.6205V11.4475C170.945 10.9023 170.945 10.3572 171.489 10.0847Z" fill="#F5F5F5"/>
<path d="M196.734 38.7034V36.5229C196.734 35.9778 197.006 35.4327 197.277 35.1601C197.549 34.8874 198.092 34.615 198.635 34.615H214.651C217.908 34.615 220.08 34.0699 221.709 32.7071C224.152 30.5266 225.509 28.0735 225.509 25.3479C225.509 23.9851 225.237 22.6224 224.423 21.2596C223.337 19.0791 221.709 17.7163 219.808 16.8986C218.994 16.3535 216.822 16.081 213.022 16.081H206.235C205.692 16.081 205.15 16.081 204.607 16.081C204.064 16.081 203.792 16.3535 203.521 16.3535C202.706 16.6261 202.435 17.7163 202.435 19.8968V28.0735C202.435 28.6186 202.163 29.1639 201.892 29.4363C201.621 29.7089 201.078 29.9813 200.535 29.9813H198.363C197.82 29.9813 197.277 29.7089 197.006 29.4363C196.734 29.1639 196.463 28.6186 196.463 28.0735V11.72C196.463 11.1749 196.734 10.6298 197.006 10.3572C197.277 10.0847 197.82 9.81213 198.363 9.81213H216.822C219.808 9.81213 222.794 10.6298 225.509 12.8103C229.852 15.8084 232.024 19.8968 232.024 24.5302V25.6206C232.024 28.6186 231.208 31.3441 229.581 34.0699C226.323 38.7034 222.251 40.8839 217.365 40.8839H198.906C198.363 40.8839 197.82 40.6112 197.549 40.3386C197.006 39.7935 196.734 39.5211 196.734 38.7034Z" fill="#F5F5F5"/>
<path d="M250.485 9.53955C251.84 9.53955 252.926 10.3572 253.47 11.9926C258.357 22.0772 258.626 22.3498 262.969 31.6167C265.143 35.9777 266.229 38.4307 266.499 38.976C266.499 39.2484 266.499 39.2484 266.499 39.521V39.7934C266.499 40.6112 265.957 40.8838 265.143 40.8838H261.884C260.528 40.8838 259.442 39.7934 258.626 37.6129C256.183 32.4344 254.283 28.6187 252.926 25.6205C251.57 22.6223 250.754 20.987 250.213 20.1693C249.669 19.6242 249.397 19.3517 249.127 19.3517H248.855C248.041 19.3517 247.225 20.7144 245.87 23.7127L238.267 39.521C237.453 40.3387 236.64 40.8838 235.824 40.8838H232.567C231.753 40.8838 231.481 40.6112 231.209 40.0661V39.7934V39.521C231.209 38.976 231.753 37.6129 232.839 35.4327C236.096 28.3461 238.811 22.8949 240.711 18.8065C242.61 14.7182 243.968 11.9926 244.512 10.9023C245.054 10.0847 245.87 9.53955 246.955 9.53955H250.485Z" fill="#F5F5F5"/>
<path d="M270.572 10.0847C270.844 9.81211 271.385 9.53955 271.929 9.53955H274.101C274.643 9.53955 275.187 9.81211 275.456 10.0847C275.728 10.3572 276 10.9023 276 11.72V38.976C276 39.521 275.728 40.0661 275.456 40.3387C275.187 40.6112 274.643 40.8838 274.101 40.8838H271.929C271.385 40.8838 270.844 40.6112 270.572 40.3387C270.3 40.0661 270.028 39.521 270.028 38.976V11.72C270.028 10.9023 270.3 10.3572 270.572 10.0847Z" fill="#F5F5F5"/>
<path d="M31.4171 64.3238C30.3314 64.3238 29.2454 63.7788 28.9741 62.4157C28.431 61.053 29.2454 59.4178 30.6027 58.8727C33.8604 57.5099 42.8182 53.1489 44.4471 47.1527L44.9899 45.2446H61.006C66.7066 45.2446 71.5929 40.6112 71.5929 34.615V16.0809C71.5929 10.3572 66.978 5.45117 61.006 5.45117H20.016C14.3154 5.45117 9.42914 10.3572 9.42914 16.0809V34.8874C9.42914 40.6112 14.0439 45.5172 20.016 45.5172H32.2316C33.8604 45.5172 34.9461 46.88 34.9461 48.2428C34.9461 49.8783 33.5888 50.9684 32.2316 50.9684H20.016C11.0579 50.9684 4 43.6094 4 34.8874V16.0809C4 7.35907 11.0579 0 20.016 0H61.006C69.9641 0 77.022 7.35907 77.022 16.0809V34.8874C77.022 43.8818 69.6925 50.9684 61.006 50.9684H48.7905C44.7186 59.4178 33.046 64.0512 32.5031 64.3238C32.2316 64.3238 31.96 64.3238 31.4171 64.3238Z" fill="#F5F5F5"/>
<path d="M25.7176 34.0699C21.1028 34.0699 17.0309 30.254 17.0309 25.3479C17.0309 20.442 21.1028 16.8987 25.7176 16.8987C30.3323 16.8987 34.4042 20.7145 34.4042 25.6205C34.4042 30.5266 30.6039 34.0699 25.7176 34.0699ZM25.7176 19.6243C22.4601 19.6243 20.017 22.3499 20.017 25.3479C20.017 28.6188 22.7315 31.0717 25.7176 31.0717C28.975 31.0717 31.4181 28.3461 31.4181 25.3479C31.6896 22.3499 28.975 19.6243 25.7176 19.6243Z" fill="#F5F5F5"/>
<path d="M60.1905 30.5266C59.3764 30.5266 58.8333 29.9813 58.8333 29.1638C58.8333 25.893 56.1187 23.44 53.1328 23.44C49.8752 23.44 47.1606 26.1656 47.1606 29.1638C47.1606 29.9813 46.6177 30.5266 45.8033 30.5266C44.9891 30.5266 44.446 29.9813 44.446 29.1638C44.446 24.5302 48.2466 20.4419 53.1328 20.4419C57.7475 20.4419 61.8194 24.2578 61.8194 29.1638C61.8194 29.9813 61.005 30.5266 60.1905 30.5266Z" fill="#F5F5F5"/>
</g>
<defs>
<filter id="filter0_d" x="0" y="0" width="280" height="74" filterUnits="userSpaceOnUse" color-interpolation-filters="sRGB">
<feFlood flood-opacity="0" result="BackgroundImageFix"/>
<feColorMatrix in="SourceAlpha" type="matrix" values="0 0 0 0 0 0 0 0 0 0 0 0 0 0 0 0 0 0 127 0"/>
<feOffset dy="4"/>
<feGaussianBlur stdDeviation="2"/>
<feColorMatrix type="matrix" values="0 0 0 0 0 0 0 0 0 0 0 0 0 0 0 0 0 0 0.25 0"/>
<feBlend mode="normal" in2="BackgroundImageFix" result="effect1_dropShadow"/>
<feBlend mode="normal" in="SourceGraphic" in2="effect1_dropShadow" result="shape"/>
</filter>
<clipPath id="clip0">
<rect width="272" height="66" fill="white" transform="translate(4)"/>
</clipPath>
</defs>
</svg>
