<svg preserveAspectRatio="none" viewBox="0 0 169 224" fill="none" xmlns="http://www.w3.org/2000/svg">
<path d="M0.0623627 167.852C31.0109 167.852 56.0996 192.989 56.0996 223.937L0.0623602 223.937L0.0623627 167.852Z" fill="#5F54DC"/>
<path d="M56.0997 223.937C25.1512 223.937 0.0625033 198.8 0.0625074 167.852L56.0998 167.852L56.0997 223.937Z" fill="#F45B69"/>
<path d="M0.000354767 167.852C30.9489 167.852 56.0376 192.989 56.0376 223.937L0.000349195 223.937L0.000354767 167.852Z" fill="#F45B69" fill-opacity="0.8"/>
<path d="M0.0623627 111.878C30.9759 111.878 56.0996 136.938 56.0996 167.852L0.0623602 167.852L0.0623627 111.878Z" fill="#5F54DC"/>
<path d="M56.0997 167.852C87.075 167.852 112.249 192.962 112.249 223.937L56.0997 223.937L56.0997 167.852Z" fill="#5F54DC" fill-opacity="0.8"/>
<path d="M56 3.8147e-06C56 30.9279 30.9279 56 -3.8147e-06 56L1.08098e-06 -1.08098e-06L56 3.8147e-06Z" fill="#F45B69"/>
<path d="M112.016 28.0635C142.929 28.0635 168.053 53.1239 168.053 84.0374L112.016 84.0374L112.016 28.0635Z" fill="#5F54DC"/>
<path d="M168.053 83.9817C168.053 114.895 142.929 139.956 112.016 139.956L112.016 83.9817L168.053 83.9817Z" fill="#5F54DC" fill-opacity="0.8"/>
<path d="M112.072 139.956C81.1584 139.956 56.0347 114.895 56.0347 83.9817L112.072 83.9817L112.072 139.956Z" fill="#5F54DC"/>
<path d="M56.0347 84.0374C56.0347 53.1239 81.1584 28.0635 112.072 28.0635L112.072 84.0374L56.0347 84.0374Z" fill="#F45B69"/>
</svg>
