<svg width="60" height="61" viewBox="0 0 60 61" fill="none" xmlns="http://www.w3.org/2000/svg">
<path d="M20 60.9959C23.7172 60.9959 25.5759 60.9959 27.1214 60.6884C33.4685 59.4259 38.4301 54.4643 39.6926 48.1173C40 46.5717 40 44.7131 40 40.9958L20 40.9958L20 60.9959Z" fill="#F7F4F3" fill-opacity="0.8"/>
<path d="M40 40.9958L40 20.9958C36.2828 20.9958 34.4241 20.9958 32.8786 21.3033C26.5315 22.5658 21.5699 27.5273 20.3074 33.8744C20 35.42 20 37.2786 20 40.9959L40 40.9958Z" fill="#F7F4F3" fill-opacity="0.8"/>
<path d="M60 20.9958L60 0.99584C56.2828 0.99584 54.4241 0.99584 52.8786 1.30328C46.5315 2.56578 41.5699 7.52735 40.3074 13.8744C40 15.42 40 17.2786 40 20.9959L60 20.9958Z" fill="#F7F4F3"/>
<path d="M20 60.9958L20 40.9958C16.2828 40.9958 14.4241 40.9958 12.8786 41.3033C6.5315 42.5658 1.56994 47.5273 0.307434 53.8744C-2.15108e-06 55.42 -2.06983e-06 57.2786 -1.90735e-06 60.9959L20 60.9958Z" fill="#F7F4F3" fill-opacity="0.6"/>
<path d="M40 40.9959C43.7172 40.9959 45.5759 40.9959 47.1214 40.6884C53.4685 39.4259 58.4301 34.4643 59.6926 28.1173C60 26.5717 60 24.7131 60 20.9958L40 20.9958L40 40.9959Z" fill="#F7F4F3"/>
</svg>
