<svg preserveAspectRatio="none" viewBox="0 0 169 280" fill="none" xmlns="http://www.w3.org/2000/svg">
<path d="M0.0626068 223.852C31.0111 223.852 56.0999 248.989 56.0999 279.938V279.938L0.0626044 279.938L0.0626068 223.852V223.852Z" fill="#5F54DC"/>
<path d="M56.0997 279.938C25.1512 279.938 0.0625033 254.8 0.0625074 223.852V223.852L56.0998 223.852L56.0997 279.938V279.938Z" fill="#F45B69"/>
<path d="M0.000476837 223.852C30.949 223.852 56.0377 248.989 56.0377 279.938V279.938L0.000471265 279.938L0.000476837 223.852V223.852Z" fill="#F45B69" fill-opacity="0.8"/>
<path d="M0.0626068 167.878C30.9761 167.878 56.0999 192.938 56.0999 223.852V223.852L0.0626044 223.852L0.0626068 167.878V167.878Z" fill="#5F54DC"/>
<path d="M56.0998 223.852C87.0752 223.852 112.249 248.962 112.249 279.937V279.937L56.0998 279.937L56.0998 223.852V223.852Z" fill="#5F54DC" fill-opacity="0.8"/>
<path d="M-1.52588e-05 -2.45224e-06C30.9135 -1.09944e-06 56.0372 25.0603 56.0372 55.9738V55.9738L-1.77027e-05 55.9738L-1.52588e-05 -2.45224e-06V-2.45224e-06Z" fill="#5F54DC"/>
<path d="M56.0001 56.0002C56.0001 86.9282 30.9281 112 0.000118256 112V112L0.000123151 56.0002L56.0001 56.0002V56.0002Z" fill="#F45B69"/>
<path d="M112.016 84.0637C142.93 84.0637 168.054 109.124 168.054 140.038V140.038L112.016 140.038L112.016 84.0637V84.0637Z" fill="#5F54DC"/>
<path d="M168.054 139.982C168.054 170.895 142.93 195.956 112.016 195.956V195.956L112.016 139.982L168.054 139.982V139.982Z" fill="#5F54DC" fill-opacity="0.8"/>
<path d="M112.072 195.956C81.1588 195.956 56.035 170.895 56.035 139.982V139.982L112.072 139.982L112.072 195.956V195.956Z" fill="#5F54DC"/>
<path d="M56.035 140.038C56.035 109.124 81.1588 84.0637 112.072 84.0637V84.0637L112.072 140.038L56.035 140.038V140.038Z" fill="#F45B69"/>
</svg>
