<svg width="60" height="60" viewBox="0 0 60 60" fill="none" xmlns="http://www.w3.org/2000/svg">
<path d="M20.0001 60C23.7173 60 25.5759 60 27.1215 59.6926C33.4686 58.4301 38.4301 53.4685 39.6926 47.1214C40.0001 45.5759 40.0001 43.7172 40.0001 40L20.0001 40L20.0001 60Z" fill="#F7F4F3" fill-opacity="0.8"/>
<path d="M40.0001 40L40.0001 20C36.2828 20 34.4242 20 32.8786 20.3074C26.5316 21.5699 21.57 26.5315 20.3075 32.8786C20.0001 34.4241 20.0001 36.2828 20.0001 40L40.0001 40Z" fill="#F7F4F3" fill-opacity="0.8"/>
<path d="M60 20L60 -9.53674e-06C56.2828 -9.37426e-06 54.4241 -9.29301e-06 52.8786 0.307427C46.5315 1.56993 41.5699 6.5315 40.3074 12.8786C40 14.4241 40 16.2828 40 20L60 20Z" fill="#F7F4F3"/>
<path d="M19.9999 60L19.9999 40C16.2827 40 14.4241 40 12.8785 40.3074C6.53144 41.5699 1.56988 46.5315 0.307373 52.8786C-6.31862e-05 54.4241 -6.3105e-05 56.2828 -6.29425e-05 60L19.9999 60Z" fill="#F7F4F3" fill-opacity="0.6"/>
<path d="M40 40C43.7172 40 45.5759 40 47.1214 39.6926C53.4685 38.4301 58.4301 33.4685 59.6926 27.1214C60 25.5759 60 23.7172 60 20L40 20L40 40Z" fill="#F7F4F3"/>
</svg>
